IKResults C03
version=1
nRows=26
nColumns=24
inDegrees=yes

Units are S.I. units (second, meters, Newtons, ...)
If the header above contains a line with 'inDegrees', this indicates whether rotational values are in degrees (yes) or radians (no).

endheader
time	pelvis_tilt	pelvis_list	pelvis_rotation	pelvis_tx	pelvis_ty	pelvis_tz	hip_flexion_r	hip_adduction_r	hip_rotation_r	knee_angle_r	ankle_angle_r	subtalar_angle_r	mtp_angle_r	hip_flexion_l	hip_adduction_l	hip_rotation_l	knee_angle_l	ankle_angle_l	subtalar_angle_l	mtp_angle_l	lumbar_extension	lumbar_bending	lumbar_rotation
      9.77000000	      3.90473263	      3.91229973	    -84.54480876	     -0.16197555	      0.95289047	     -3.50085104	     34.50965477	     -7.77130109	     -7.63403763	    -60.66796726	      3.72856479	    -22.07732818	      0.00000000	      6.31648542	      9.40802562	      6.61037420	    -15.71794123	     16.45775710	      2.46280328	      0.00000000	     -8.48995027	     -4.92686792	     -3.52128093
      9.78000000	      3.77874386	      3.68778767	    -83.97599174	     -0.16117001	      0.95258516	     -3.48710244	     35.14192221	     -7.85874703	     -8.15629672	    -58.25956371	      3.91146392	    -22.02812052	      0.00000000	      5.07743348	      9.25221777	      7.39111561	    -15.69909337	     16.68301677	      2.47859194	      0.00000000	     -8.81021167	     -4.55345263	     -3.68292090
      9.79000000	      3.70086784	      3.44638225	    -83.44520843	     -0.16048569	      0.95210744	     -3.47328122	     35.64532263	     -7.95990548	     -8.52343891	    -55.69129121	      4.52285493	    -21.84124882	      0.00000000	      3.80353160	      9.10133172	      8.06764413	    -15.70276973	     17.93195647	      2.40037393	      0.00000000	     -9.14564892	     -4.44835003	     -4.58420367
      9.80000000	      3.60563123	      3.24617165	    -82.99901154	     -0.16003352	      0.95142477	     -3.45935522	     36.12024991	     -7.99298367	     -8.85322266	    -52.95130437	      4.53645675	    -21.72578731	      0.00000000	      2.54105319	      8.87356556	      8.54192416	    -15.56926320	     18.15273299	      2.45788546	      0.00000000	     -9.45620496	     -4.19046707	     -4.72338830
      9.81000000	      3.53070425	      3.07464941	    -82.64336739	     -0.15980220	      0.95042745	     -3.44521350	     36.53916783	     -7.95633639	     -9.04883647	    -50.03842928	      4.81807072	    -21.18638555	      0.00000000	      1.29064202	      8.60651949	      8.69087231	    -15.42573186	     19.46054257	      3.08130076	      0.00000000	     -9.59337452	     -4.03557334	     -5.42702016
      9.82000000	      3.47723762	      2.96361671	    -82.37137447	     -0.15964178	      0.94913620	     -3.43100495	     36.96422197	     -7.90570970	     -9.11980258	    -47.13060076	      4.98808477	    -20.28744625	      0.00000000	      0.07996001	      8.34934129	      8.72138659	    -15.21873798	     20.30934820	      3.89355746	      0.00000000	     -9.77474362	     -3.94133043	     -5.63722692
      9.83000000	      3.46435703	      2.87008467	    -82.13055352	     -0.15954217	      0.94758972	     -3.41663848	     37.29191931	     -7.85987229	     -9.13343478	    -44.04001622	      5.02491447	    -20.11514835	      0.00000000	     -1.15047745	      8.13604896	      8.78694126	    -14.98082881	     20.51782334	      3.96762259	      0.00000000	    -10.00235120	     -3.92285511	     -5.69989121
      9.84000000	      3.46409307	      2.83404135	    -81.94450818	     -0.15948582	      0.94576263	     -3.40219546	     37.60891915	     -7.80085620	     -9.13119224	    -40.85994817	      4.94329172	    -19.34477301	      0.00000000	     -2.32816459	      7.93497816	      8.79444925	    -14.72295052	     21.37191287	      4.23674888	      0.00000000	    -10.14852269	     -3.80451389	     -5.94604692
      9.85000000	      3.52715841	      2.91114668	    -81.68490690	     -0.15926300	      0.94373435	     -3.38794957	     37.97414946	     -7.85544021	     -9.05062208	    -37.65332819	      4.96147968	    -18.12853938	      0.00000000	     -3.43873817	      7.87989021	      9.36942859	    -14.39498366	     22.15739496	      4.24813938	      0.00000000	     -9.92773278	     -4.05494111	     -6.31560612
      9.86000000	      3.60152827	      2.99227328	    -81.51765681	     -0.15920170	      0.94139872	     -3.37346051	     38.27471506	     -7.84641015	     -8.93332560	    -34.39319418	      5.96663792	    -16.18623966	      0.00000000	     -4.45459663	      7.76685337	      9.33019272	    -14.22016596	     22.75273281	      5.02524971	      0.00000000	     -9.89101065	     -4.01711890	     -6.53633468
      9.87000000	      3.68640311	      3.13346480	    -81.36537561	     -0.15919924	      0.93889069	     -3.35897151	     38.58781831	     -7.81531847	     -8.75115617	    -31.15225170	      6.00004807	    -16.14964273	      0.00000000	     -5.35726634	      7.75105921	      9.84500729	    -14.14889460	     22.80180430	      4.99595590	      0.00000000	     -9.80229658	     -4.13940153	     -6.54384406
      9.88000000	      3.78442910	      3.33449335	    -81.13857759	     -0.15911109	      0.93634209	     -3.34449277	     38.88443258	     -7.84366441	     -8.60511170	    -27.98886249	      7.03730329	    -15.31648898	      0.00000000	     -6.19558526	      7.68019474	     10.06868565	    -14.10575190	     23.67469053	      4.57873053	      0.00000000	     -9.69828825	     -4.22790946	     -6.96775389
      9.89000000	      3.91319580	      3.62322664	    -80.88831083	     -0.15900706	      0.93366487	     -3.33006520	     39.23713732	     -7.92900327	     -8.27340280	    -24.98636250	      7.50826356	    -14.90316459	      0.00000000	     -6.91436691	      7.64358746	     10.33940122	    -14.06574718	     23.69455395	      4.65179849	      0.00000000	     -9.30956704	     -4.49240117	     -7.16574861
      9.90000000	      3.95283907	      3.90402672	    -80.56767398	     -0.15906443	      0.93102692	     -3.31552230	     39.47964800	     -7.95482915	     -8.10884125	    -22.04007458	      9.24756553	    -12.67176648	      0.00000000	     -7.54707513	      7.45442315	     10.41802252	    -14.17757175	     24.11501312	      5.30842934	      0.00000000	     -9.25774934	     -4.47113953	     -7.72840417
      9.91000000	      4.00390800	      4.33485989	    -80.09079951	     -0.15874581	      0.92832659	     -3.30120236	     39.81621322	     -8.12219352	     -8.00368064	    -19.24191119	      9.47029410	    -12.60658444	      0.00000000	     -7.90847705	      7.31479927	     10.71110334	    -14.43536105	     24.15967154	      5.34892869	      0.00000000	     -8.82551378	     -4.57003953	     -7.86213379
      9.92000000	      4.02078795	      4.76225009	    -79.67876918	     -0.15874536	      0.92566229	     -3.28656241	     40.07181443	     -8.18343663	     -7.67369814	    -16.57085831	     10.97033187	    -11.81822476	      0.00000000	     -8.24155968	      7.07940348	     10.69201953	    -14.80638663	     24.33264322	      6.11383349	      0.00000000	     -8.48724949	     -4.67507224	     -8.81557281
      9.93000000	      4.01832258	      5.23995225	    -79.29919751	     -0.15887511	      0.92297720	     -3.27156300	     40.29402148	     -8.20797001	     -7.09819962	    -14.04137949	     11.12982979	    -11.55464399	      0.00000000	     -8.49533625	      6.82530801	     10.59751078	    -15.18360018	     24.35105679	      6.29325608	      0.00000000	     -7.93709792	     -4.72962867	     -8.87399323
      9.94000000	      3.98136394	      5.63581306	    -78.96320717	     -0.15914343	      0.92053216	     -3.25631704	     40.41256015	     -8.16392029	     -6.50767541	    -11.84052901	     12.76195358	     -9.48209392	      0.00000000	     -8.78851291	      6.51178215	     10.40629492	    -15.63000047	     24.70230874	      8.12478250	      0.00000000	     -7.66033419	     -4.73623336	     -9.45225049
      9.95000000	      3.85222673	      6.04998380	    -78.40273759	     -0.15924071	      0.91820655	     -3.24090566	     40.50373745	     -8.16125809	     -6.24331476	    -10.14416308	     13.41690699	     -9.72351240	      0.00000000	     -8.95895783	      6.06971505	     10.47321783	    -16.24301989	     24.45162432	      8.51113374	      0.00000000	     -7.23276807	     -4.68131074	     -9.90592983
      9.96000000	      3.74501779	      6.43349617	    -77.87590501	     -0.15927387	      0.91580514	     -3.22560691	     40.67032908	     -8.20299880	     -6.26178163	     -9.17524298	     13.74145278	    -10.08602165	      0.00000000	     -9.09784484	      5.66129099	     10.54306557	    -16.96172504	     24.30100356	      9.17720444	      0.00000000	     -6.89872797	     -4.59736484	    -10.46540864
      9.97000000	      3.64573640	      6.73879550	    -77.37039340	     -0.15928152	      0.91342592	     -3.20979187	     40.77758115	     -8.26574228	     -6.58913534	     -8.92599750	     13.80898942	    -10.08815384	      0.00000000	     -9.31526596	      5.24947276	     10.71376694	    -17.69001179	     24.20156275	      9.45303601	      0.00000000	     -6.54756570	     -4.42695892	    -10.63121592
      9.98000000	      3.55855568	      6.94952286	    -76.88606747	     -0.15921995	      0.91102656	     -3.19362329	     40.81839910	     -8.35176191	     -7.01583920	     -9.41510244	     14.20330704	     -9.33685144	      0.00000000	     -9.57711369	      4.84997156	     10.90226312	    -18.55259757	     23.67080317	     10.48927471	      0.00000000	     -6.34627210	     -4.34644465	    -11.37898170
      9.99000000	      3.41986129	      7.04008577	    -76.48664057	     -0.15926388	      0.90883547	     -3.17706297	     40.73643851	     -8.32547277	     -7.46657174	    -10.50424643	     14.24750966	     -9.26519060	      0.00000000	     -9.96772167	      4.42696543	     11.23804893	    -19.49123044	     23.64270084	     10.52072716	      0.00000000	     -6.27887202	     -4.23370740	    -11.38955137
     10.00000000	      3.18706505	      7.04395816	    -76.12521491	     -0.15938617	      0.90678579	     -3.16014171	     40.49834244	     -8.15233127	     -7.88482837	    -11.88127936	     14.93985313	     -7.23075962	      0.00000000	    -10.32744628	      3.83255215	     11.23583536	    -20.42150370	     22.48859255	     11.50158800	      0.00000000	     -6.15962199	     -3.78099376	    -12.00381794
     10.01000000	      2.82736255	      7.03827540	    -75.84486558	     -0.15969922	      0.90502897	     -3.14307341	     40.24950388	     -7.73915753	     -8.48430202	    -12.90923756	     14.86500573	     -7.11907072	      0.00000000	    -10.57344693	      3.16620624	     11.18842274	    -21.54710062	     22.39264153	     11.53992219	      0.00000000	     -5.99828254	     -3.27220601	    -11.97735064
     10.02000000	      2.33284894	      7.16538769	    -75.61596168	     -0.16014112	      0.90351865	     -3.12623466	     40.04976736	     -7.18481488	     -8.94411539	    -12.61305696	     12.55222282	     -6.79022556	      0.00000000	    -10.44290433	      2.41743037	     10.91617606	    -22.89919091	     21.22934946	     12.04108931	      0.00000000	     -5.73973223	     -2.64706014	    -11.93678110
